ffmpeg version 4.2.2-static https://johnvansickle.com/ffmpeg/  Copyright (c) 2000-2019 the FFmpeg developers
  built with gcc 8 (Debian 8.3.0-6)
  configuration: --enable-gpl --enable-version3 --enable-static --disable-debug --disable-ffplay --disable-indev=sndio --disable-outdev=sndio --cc=gcc --enable-fontconfig --enable-frei0r --enable-gnutls --enable-gmp --enable-libgme --enable-gray --enable-libaom --enable-libfribidi --enable-libass --enable-libvmaf --enable-libfreetype --enable-libmp3lame --enable-libopencore-amrnb --enable-libopencore-amrwb --enable-libopenjpeg --enable-librubberband --enable-libsoxr --enable-libspeex --enable-libsrt --enable-libvorbis --enable-libopus --enable-libtheora --enable-libvidstab --enable-libvo-amrwbenc --enable-libvpx --enable-libwebp --enable-libx264 --enable-libx265 --enable-libxml2 --enable-libdav1d --enable-libxvid --enable-libzvbi --enable-libzimg
  libavutil      56. 31.100 / 56. 31.100
  libavcodec     58. 54.100 / 58. 54.100
  libavformat    58. 29.100 / 58. 29.100
  libavdevice    58.  8.100 / 58.  8.100
  libavfilter     7. 57.100 /  7. 57.100
  libswscale      5.  5.100 /  5.  5.100
  libswresample   3.  5.100 /  3.  5.100
  libpostproc    55.  5.100 / 55.  5.100
Input #0, rawvideo, from 'pipe:':
  Duration: N/A, start: 0.000000, bitrate: 132710 kb/s
    Stream #0:0: Video: rawvideo (RGB[24] / 0x18424752), rgb24, 640x360, 132710 kb/s, 24 tbr, 24 tbn, 24 tbc
Stream mapping:
  Stream #0:0 -> #0:0 (rawvideo (native) -> h264 (libx264))
[libx264 @ 0x5506bc0] using cpu capabilities: MMX2 SSE2Fast SSSE3 SSE4.2 AVX FMA3 BMI2 AVX2
[libx264 @ 0x5506bc0] profile High, level 3.0, 4:2:0, 8-bit
[libx264 @ 0x5506bc0] 264 - core 159 r2991 1771b55 - H.264/MPEG-4 AVC codec - Copyleft 2003-2019 - http://www.videolan.org/x264.html - options: cabac=1 ref=3 deblock=1:0:0 analyse=0x3:0x113 me=hex subme=7 psy=1 psy_rd=1.00:0.00 mixed_ref=1 me_range=16 chroma_me=1 trellis=1 8x8dct=1 cqm=0 deadzone=21,11 fast_pskip=1 chroma_qp_offset=-2 threads=11 lookahead_threads=1 sliced_threads=0 nr=0 decimate=1 interlaced=0 bluray_compat=0 constrained_intra=0 bframes=3 b_pyramid=2 b_adapt=1 b_bias=0 direct=1 weightb=1 open_gop=0 weightp=2 keyint=250 keyint_min=24 scenecut=40 intra_refresh=0 rc_lookahead=40 rc=crf mbtree=1 crf=23.0 qcomp=0.60 qpmin=0 qpmax=69 qpstep=4 ip_ratio=1.40 aq=1:1.00
Output #0, flv, to './tmp/streaming_capability_with_NAL_units.flv':
  Metadata:
    encoder         : Lavf58.29.100
    Stream #0:0: Video: h264 (libx264) ([7][0][0][0] / 0x0007), yuv420p, 640x360, q=-1--1, 24 fps, 1k tbn, 24 tbc
    Metadata:
      encoder         : Lavc58.54.100 libx264
    Side data:
      cpb: bitrate max/min/avg: 0/0/0 buffer size: 0 vbv_delay: -1
frame=  120 fps=0.0 q=-1.0 Lsize=       6kB time=00:00:04.87 bitrate=   9.7kbits/s speed=23.6x    
video:3kB audio:0kB subtitle:0kB other streams:0kB global headers:0kB muxing overhead: 81.080254%
[libx264 @ 0x5506bc0] frame I:1     Avg QP: 9.00  size:    98
[libx264 @ 0x5506bc0] frame P:30    Avg QP: 9.23  size:    28
[libx264 @ 0x5506bc0] frame B:89    Avg QP:12.67  size:    19
[libx264 @ 0x5506bc0] consecutive B-frames:  0.8%  0.0%  2.5% 96.7%
[libx264 @ 0x5506bc0] mb I  I16..4: 100.0%  0.0%  0.0%
[libx264 @ 0x5506bc0] mb P  I16..4:  0.0%  0.0%  0.0%  P16..4:  0.0%  0.0%  0.0%  0.0%  0.0%    skip:100.0%
[libx264 @ 0x5506bc0] mb B  I16..4:  0.0%  0.0%  0.0%  B16..8:  0.0%  0.0%  0.0%  direct: 0.0%  skip:100.0%
[libx264 @ 0x5506bc0] 8x8 transform intra:0.0%
[libx264 @ 0x5506bc0] coded y,uvDC,uvAC intra: 0.0% 0.1% 0.0% inter: 0.0% 0.0% 0.0%
[libx264 @ 0x5506bc0] i16 v,h,dc,p: 96%  0%  4%  0%
[libx264 @ 0x5506bc0] i8c dc,h,v,p: 100%  0%  0%  0%
[libx264 @ 0x5506bc0] Weighted P-Frames: Y:0.0% UV:0.0%
[libx264 @ 0x5506bc0] kb/s:4.14
